<?xml version="1.0" standalone="no"?>
<!DOCTYPE svg PUBLIC "-//W3C//DTD SVG 20010904//EN"
 "http://www.w3.org/TR/2001/REC-SVG-20010904/DTD/svg10.dtd">
<svg version="1.0" xmlns="http://www.w3.org/2000/svg"
 width="327.000000pt" height="125.000000pt" viewBox="0 0 327.000000 125.000000"
 preserveAspectRatio="xMidYMid meet">

<g transform="translate(0.000000,125.000000) scale(0.100000,-0.100000)"
fill="#000000" stroke="none">
<path d="M463 1200 c-58 -41 -76 -60 -98 -105 -31 -63 -30 -120 3 -164 l19
-25 -66 -66 c-51 -50 -79 -90 -120 -170 -56 -109 -112 -254 -137 -351 -7 -31
-20 -72 -29 -92 -8 -20 -15 -55 -15 -77 0 -23 -5 -51 -11 -62 -10 -18 -8 -25
11 -40 34 -27 84 -15 100 26 l9 21 0 -22 c1 -30 33 -46 63 -32 13 6 46 38 73
71 119 143 135 149 135 48 0 -65 2 -71 24 -81 35 -16 72 -4 85 28 6 16 12 66
13 112 2 82 2 83 -30 112 -50 45 -105 41 -168 -11 -27 -22 -52 -40 -55 -40 -4
0 -32 -34 -63 -75 -31 -41 -59 -75 -63 -75 -11 0 8 84 42 179 84 240 145 365
225 464 59 74 63 77 103 77 23 0 51 -7 61 -15 35 -27 58 -103 66 -220 8 -121
22 -163 56 -171 29 -7 61 3 68 22 3 8 6 69 7 135 1 134 -1 131 79 102 44 -16
52 -16 116 -1 38 9 82 14 97 11 37 -7 97 -81 97 -119 0 -46 -47 -273 -68 -334
-27 -75 -37 -162 -22 -190 6 -12 31 -30 54 -41 41 -18 52 -18 327 -3 378 21
1684 12 1710 -12 24 -22 56 -17 84 13 28 31 30 41 14 77 -12 25 -35 36 -80 36
-26 0 -27 1 -32 87 -4 77 -11 101 -50 190 -62 139 -93 189 -125 202 -15 7 -55
30 -87 51 -33 22 -65 40 -71 40 -6 0 -40 13 -75 29 -119 53 -174 65 -304 65
-103 0 -131 -4 -197 -27 -124 -43 -288 -128 -333 -172 -120 -121 -203 -268
-224 -398 l-12 -77 -226 0 c-182 0 -224 3 -220 13 50 131 82 331 70 438 -3 30
-17 75 -31 101 l-25 47 31 29 c17 16 34 42 38 57 10 39 -11 111 -44 160 -23
33 -35 41 -72 46 -25 4 -58 12 -74 18 -16 7 -43 9 -60 5 -40 -8 -95 -49 -106
-80 -11 -28 -22 -30 -40 -9 -7 8 -19 15 -27 15 -26 0 -91 -39 -127 -76 -30
-31 -38 -35 -51 -24 -13 11 -12 16 10 38 30 30 49 92 40 135 -10 48 -50 111
-89 140 -19 15 -38 27 -43 27 -4 0 -19 9 -33 20 -14 11 -32 19 -40 19 -8 0
-47 -22 -87 -49z m131 -96 c19 -19 21 -89 3 -124 -8 -16 -23 -26 -41 -28 -33
-4 -82 14 -89 32 -9 24 31 95 65 116 40 24 42 24 62 4z m563 -170 c25 -19 33
-32 33 -58 0 -42 -15 -56 -61 -56 -63 0 -104 75 -61 112 14 13 35 24 51 27 2
1 19 -10 38 -25z m-239 -66 c18 -18 15 -66 -5 -76 -24 -13 -60 2 -68 28 -13
40 44 77 73 48z m1690 -214 c101 -33 186 -78 222 -117 129 -139 126 -134 136
-299 l7 -108 -568 0 -568 0 5 58 c3 32 15 79 27 105 12 26 26 59 31 73 32 83
178 224 285 275 111 52 287 58 423 13z"/>
<path d="M1060 1206 c-123 -54 -145 -69 -145 -101 0 -18 9 -34 26 -47 26 -20
26 -20 77 6 35 18 67 26 102 26 41 0 56 5 75 25 14 13 25 28 25 32 -1 23 -48
88 -65 90 -11 1 -54 -13 -95 -31z"/>
<path d="M865 269 c-16 -4 -60 -35 -96 -68 -60 -55 -67 -65 -78 -117 -8 -44
-8 -59 1 -65 30 -19 68 10 155 115 28 33 47 30 51 -10 5 -56 12 -71 38 -82 20
-10 31 -10 52 0 24 12 27 19 30 73 4 72 -19 130 -59 151 -31 16 -50 16 -94 3z"/>
</g>
</svg>
